<?xml version="1.0" encoding="iso-8859-1"?>
<!-- Generator: Adobe Illustrator 19.0.0, SVG Export Plug-In . SVG Version: 6.00 Build 0)  -->
<svg version="1.1" id="Capa_1" xmlns="http://www.w3.org/2000/svg" xmlns:xlink="http://www.w3.org/1999/xlink" x="0px" y="0px"
	 viewBox="0 0 512.001 512.001" style="enable-background:new 0 0 512.001 512.001;" xml:space="preserve">
<path style="fill:#CCF5FF;" d="M266.946,511.8H74.42l81.269-81.069l9.897-12.594c1.799,1.499,3.599,2.698,5.097,3.898
	c4.797,3.299,8.996,4.497,14.994,8.696L266.946,511.8z"/>
<path style="fill:#913F02;" d="M305.631,137.945c0,24.889-20.091,44.983-44.983,44.983H80.719
	c-24.891,0-44.983-20.093-44.983-44.983c0-20.692,14.094-38.086,33.287-43.483c-2.099-5.097-3.299-10.796-3.299-16.494
	c0-24.891,20.091-44.983,44.983-44.983h89.965c7.797,0,14.094-5.998,14.694-13.495L216.865,0l18.294,6.297
	c24.291,8.398,40.483,31.189,40.483,56.678c0,11.096-2.998,21.591-8.398,30.589C288.838,96.561,305.631,115.454,305.631,137.945z"/>
<rect x="155.689" y="377.853" style="fill:#AFD5E0;" width="29.988" height="52.878"/>
<path style="fill:#FFD400;" d="M485.561,134.448c0-41.384-33.587-74.371-74.971-74.371s-74.971,32.987-74.971,74.371
	c0,29.988,17.694,56.378,44.382,68.372l-14.393,261.898v4.499c0.601,11.994,5.998,22.791,14.694,30.887
	c8.398,7.797,19.193,11.695,30.288,11.695h2.099c12.294-0.601,23.092-5.998,31.187-14.694c8.098-8.996,12.296-20.392,11.695-32.688
	l-14.393-261.598C467.867,190.826,485.561,164.436,485.561,134.448z"/>
<g>
	<path style="fill:#FDBF00;" d="M441.179,202.82l14.393,261.598c0.601,12.296-3.599,23.692-11.695,32.688
		c-8.096,8.696-18.893,14.094-31.187,14.694h-2.099V60.077c41.384,0,74.971,32.987,74.971,74.371
		C485.561,164.436,467.867,190.826,441.179,202.82z"/>
	<path style="fill:#FDBF00;" d="M455.573,135.946c0,24.889-20.091,44.983-44.983,44.983s-44.983-20.093-44.983-44.983
		c0-24.891,20.091-44.983,44.983-44.983S455.573,111.056,455.573,135.946z"/>
</g>
<path style="fill:#FF9F00;" d="M455.573,135.946c0,24.889-20.091,44.983-44.983,44.983V90.964
	C435.481,90.964,455.573,111.056,455.573,135.946z"/>
<path style="fill:#AFD5E0;" d="M185.678,430.732l81.269,81.07l-96.264,0.2v-89.765C175.481,425.334,179.679,426.532,185.678,430.732
	z"/>
<rect x="170.684" y="377.853" style="fill:#86B5BF;" width="14.994" height="52.878"/>
<path style="fill:#6F2E01;" d="M305.631,137.945c0,24.889-20.091,44.983-44.983,44.983h-89.965V32.986h29.988
	c7.797,0,14.094-5.998,14.694-13.495L216.865,0l18.294,6.297c24.291,8.398,40.483,31.189,40.483,56.678
	c0,11.096-2.998,21.591-8.398,30.589C288.838,96.561,305.631,115.454,305.631,137.945z"/>
<path style="fill:#CCF5FF;" d="M26.44,152.94l16.193,32.686c15.294,29.988,23.092,63.575,23.092,97.162
	c0,58.778,46.181,110.058,104.959,110.058c54.579,0,104.959-41.684,104.959-110.058c0-33.587,7.797-67.174,23.092-97.162
	l16.193-32.686L26.44,152.94L26.44,152.94z"/>
<path style="fill:#AFD5E0;" d="M314.928,152.94l-16.193,32.686c-15.294,29.988-23.092,63.575-23.092,97.162
	c0,68.374-50.38,110.058-104.959,110.058V152.94L314.928,152.94L314.928,152.94z"/>
<g>
</g>
<g>
</g>
<g>
</g>
<g>
</g>
<g>
</g>
<g>
</g>
<g>
</g>
<g>
</g>
<g>
</g>
<g>
</g>
<g>
</g>
<g>
</g>
<g>
</g>
<g>
</g>
<g>
</g>
</svg>
