<?xml version="1.0" encoding="iso-8859-1"?>
<!-- Generator: Adobe Illustrator 19.0.0, SVG Export Plug-In . SVG Version: 6.00 Build 0)  -->
<svg version="1.1" id="Layer_1" xmlns="http://www.w3.org/2000/svg" xmlns:xlink="http://www.w3.org/1999/xlink" x="0px" y="0px"
	 viewBox="0 0 512 512" style="enable-background:new 0 0 512 512;" xml:space="preserve">
<path style="fill:#F7A676;" d="M256,2.768v177.124c48.912,0,88.562-39.65,88.562-88.562S304.912,2.768,256,2.768z"/>
<path style="fill:#FEEB5C;" d="M311.351,91.33c0-48.912-24.782-88.562-55.351-88.562c-48.912,0-88.562,39.65-88.562,88.562
	s39.65,88.562,88.562,88.562C286.569,179.892,311.351,140.242,311.351,91.33z"/>
<rect x="101.016" style="fill:#FBCFA3;" width="44.281" height="149.017"/>
<path style="fill:#7A3E25;" d="M167.438,85.795v177.124c48.912,0,88.562-39.65,88.562-88.562S216.35,85.795,167.438,85.795z"/>
<path style="fill:#A65A3A;" d="M222.789,174.357c0-48.912-24.782-88.562-55.351-88.562c-48.912,0-88.562,39.65-88.562,88.562
	s39.65,88.562,88.562,88.562C198.007,262.919,222.789,223.269,222.789,174.357z"/>
<path style="fill:#E0315B;" d="M344.562,85.795v177.124c48.912,0,88.562-39.65,88.562-88.562S393.474,85.795,344.562,85.795z"/>
<path style="fill:#EA5A7D;" d="M399.914,174.357c0-48.912-24.782-88.562-55.351-88.562c-48.912,0-88.562,39.65-88.562,88.562
	s39.65,88.562,88.562,88.562C375.132,262.919,399.914,223.269,399.914,174.357z"/>
<g>
	<rect x="228.324" y="390.227" style="fill:#74C8EE;" width="55.351" height="102.4"/>
	<path style="fill:#74C8EE;" d="M344.562,470.487h-33.211l33.211,33.211h33.211C377.773,485.431,362.828,470.487,344.562,470.487z"
		/>
</g>
<path style="fill:#AEE6FF;" d="M311.351,470.487H167.438c-18.266,0-33.211,14.945-33.211,33.211h210.335
	C344.562,485.431,329.617,470.487,311.351,470.487z"/>
<path style="fill:#74C8EE;" d="M422.054,174.357L300.281,412.368h33.211c36.684,0,66.422-29.738,66.422-66.422
	c0-69.142,55.351-102.448,55.351-171.589H422.054z"/>
<path style="fill:#AEE6FF;" d="M366.703,345.946c0-69.142,55.351-102.448,55.351-171.589H56.735
	c0,69.142,55.351,102.448,55.351,171.589c0,36.684,29.738,66.422,66.422,66.422h121.773
	C336.965,412.368,366.703,382.631,366.703,345.946z"/>
<g>
	<path style="fill:#74C8EE;" d="M383.308,512H128.692c-4.585,0-8.303-3.716-8.303-8.303c0-4.586,3.717-8.303,8.303-8.303h254.616
		c4.585,0,8.303,3.716,8.303,8.303C391.611,508.284,387.893,512,383.308,512z"/>
	<path style="fill:#74C8EE;" d="M460.8,182.659H51.2c-4.585,0-8.303-3.716-8.303-8.303c0-4.586,3.717-8.303,8.303-8.303h409.6
		c4.585,0,8.303,3.716,8.303,8.303C469.103,178.943,465.385,182.659,460.8,182.659z"/>
</g>
<g>
</g>
<g>
</g>
<g>
</g>
<g>
</g>
<g>
</g>
<g>
</g>
<g>
</g>
<g>
</g>
<g>
</g>
<g>
</g>
<g>
</g>
<g>
</g>
<g>
</g>
<g>
</g>
<g>
</g>
</svg>
