<svg height="480pt" viewBox="-160 0 480 480" width="480pt" xmlns="http://www.w3.org/2000/svg"><path d="m56 344h48v104c0 13.253906-10.746094 24-24 24s-24-10.746094-24-24zm0 0" fill="#f6bf9b"/><path d="m8 331.640625 144-39.28125v-64l-144 39.28125zm0 0" fill="#e9686a"/><path d="m8 267.640625 144-39.28125v-64l-144 39.28125zm0 0" fill="#f98c96"/><path d="m8 344h144v-51.640625l-144 39.28125zm0 0" fill="#f98c96"/><path d="m152 8h-144v67.640625l144-39.28125zm0 0" fill="#e9686a"/><path d="m8 139.640625v64l144-39.28125v-64zm0 0" fill="#e9686a"/><path d="m152 36.359375-144 39.28125v64l144-39.28125zm0 0" fill="#f98c96"/><path d="m80 480c17.671875 0 32-14.328125 32-32v-96h40c4.417969 0 8-3.582031 8-8v-336c0-4.417969-3.582031-8-8-8h-144c-4.417969 0-8 3.582031-8 8v336c0 4.417969 3.582031 8 8 8h40v96c0 17.671875 14.328125 32 32 32zm16-32c0 8.835938-7.164062 16-16 16s-16-7.164062-16-16v-96h32zm-80-432h128v14.257812l-128 34.902344zm0 65.742188 128-34.902344v47.417968l-128 34.902344zm0 64 128-34.902344v47.417968l-128 34.902344zm0 64 128-34.902344v47.417968l-128 34.902344zm0 64 128-34.902344v47.417968l-128 34.902344zm6.398438 62.257812 121.601562-33.160156v33.160156zm0 0"/></svg>